<svg id="Calque_1" data-name="Calque 1" xmlns="http://www.w3.org/2000/svg" viewBox="0 0 659.93 661.67"><defs><style>.cls-1{fill:#d4d7d7;}.cls-2{fill:#4b555a;}.cls-3{fill:#646c6f;}.cls-4{fill:#eeeeec;}.cls-5{fill:#4c565b;}.cls-6{fill:#656d71;}.cls-7{fill:#7a8084;}.cls-8{fill:#c8cdd3;}.cls-9{fill:#d5d8d8;}.cls-10{fill:#e0e1e2;}</style></defs><title>avatar_male</title><path class="cls-1" d="M103.14,568A285.83,285.83,0,0,1,73.2,532.32a324.06,324.06,0,0,1-45.62-90.26,368.72,368.72,0,0,1-12.8-56c-3.47-22.17-3.51-44.43-2.5-66.59,1.09-24.11,5.6-47.86,12.43-71.13A327,327,0,0,1,85.52,132.88c7.93-9.6,16-19.13,24.94-27.73a346.59,346.59,0,0,1,70.72-52.82,323.84,323.84,0,0,1,83.6-32.7,382.37,382.37,0,0,1,48.37-7.88c9.27-1,18.62-1.21,27.75-1.25a248.49,248.49,0,0,1,28.25,1.22C380,12.93,390.83,14.06,401.56,16A331.47,331.47,0,0,1,540.43,77.34,343.32,343.32,0,0,1,593,127.24a333,333,0,0,1,49.45,77.9,309.93,309.93,0,0,1,23.67,76.19,413.76,413.76,0,0,1,5,45.8c1.75,29.18-1.68,57.74-7.76,86.16a313.42,313.42,0,0,1-25.71,73,307.18,307.18,0,0,1-43.34,65.92c-4.66,5.37-9.11,10.93-14.3,15.82-2.66-1.1-2.55-3.73-3.1-5.88-2.93-11.28-5.4-22.68-10.91-33.13-13.74-26.06-35.2-41.8-63.68-48.76-22.79-5.56-46-9.67-68.19-17.45-20.55-11.19-33.82-27.91-38.82-51-.84-3.89-1.79-7.77-2.9-11.6s-.42-6.82,2.49-9.48c10-9.15,19-19.08,23.68-32.15a6.42,6.42,0,0,1,1.48-2c9.53-9.66,16.77-20.95,23.12-32.86a28.85,28.85,0,0,0,1.76-4.08c5.27-11.14,10.61-22.25,12.69-34.57,1.32-7.79,1.6-15.53-.3-23.26.4-23.49.55-47,0-70.46-.54-24.38-20.75-49-45.24-56.85-9.89-3.18-19.95-3.59-30.14-2.84a23.1,23.1,0,0,1-8.83-.94c-26.11-8.14-51.57-6.45-76.25,5.4a24.46,24.46,0,0,1-11.62,2.28,70.47,70.47,0,0,0-24.14,3.19,51.64,51.64,0,0,0-35.75,49.13c0,24-.24,48,.16,71.95-3,11.22-.7,22.06,2.53,32.78,2.06,6.84,4.34,13.61,8.46,19.58a9.71,9.71,0,0,1,1.84,4.57c-.67,2.41,1.85,3.43,2.37,5.33,5.56,11.27,12.42,21.62,21.59,30.33,2.12,1.15,2.63,3.27,3.31,5.34a42.33,42.33,0,0,0,10.83,17.73,142.75,142.75,0,0,1,14.85,16.78,4.6,4.6,0,0,1,.09,1.48c-2.48,11-4.74,22.17-9.45,32.54a65.82,65.82,0,0,1-24.45,28.31c-2.51,1.64-5,3.23-7.49,5C226,470.9,200.81,475,176.24,481.5a90.15,90.15,0,0,0-31.29,15c-19.46,14.59-31.34,34-36.63,57.66-.77,3.4-1.6,6.8-2.59,10.15C105.3,565.73,105.4,567.74,103.14,568Z" transform="translate(-11.71 -10.5)"/><path class="cls-2" d="M103.14,568c2.62-6.14,3.5-12.76,5.28-19.13q15.7-56,72.13-69.81c17.91-4.41,35.89-8.56,53.82-12.95,3.85-.94,7.6-2.35,11.37-3.66,1.4-.49,2.7-1.33,4.18-.29,2.42.24,3.66,2.18,5.16,3.67,10,10,20,20.05,30.07,30,15.39,15.24,34.15,23.37,55.62,23.7a77.77,77.77,0,0,0,56.64-22.33c10.7-10.27,21-21,31.52-31.4,1.5-1.49,2.74-3.44,5.16-3.68,6.36.42,12,3.55,18.09,5,20.23,4.74,40.8,8.36,60.52,14.88,32.67,10.8,53.07,33.71,62.18,66.78,1.76,6.4,3.46,12.81,5.19,19.22a6.43,6.43,0,0,1-2,5.29c-42.7,42.39-92.77,72-151,87.61a3.35,3.35,0,0,1-1,0c-2.38-3.12-1.31-6.75-1.3-10.13.1-23.21-8.28-43-24.66-59.12q-23.15-22.77-56.09-23.4c-21.88-.39-41,6.18-57.16,20.75-17.24,15.54-26.34,35.14-27.52,58.4-.23,4.55,1.32,9.3-1.29,13.63-13.84-2.72-27-7.54-40-12.81-42.48-17.21-80-41.91-112-74.79C104.44,571.87,102.5,570.62,103.14,568Z" transform="translate(-11.71 -10.5)"/><path class="cls-3" d="M258,661c-.41-12.65-.33-25.29,4.26-37.33C274,592.93,295.34,573.29,328.37,568c29.24-4.68,54.65,3.6,75.07,25.12C418,608.46,425.76,627,426,648.39c.05,4.16,0,8.32,0,12.48-10.19,3.43-20.77,5.25-31.33,7a315.66,315.66,0,0,1-66.42,4C304.5,670.68,280.92,667.89,258,661Z" transform="translate(-11.71 -10.5)"/><path class="cls-4" d="M434.09,462.15c-12.69,12.71-24.84,26-38.16,38-31.5,28.38-78.86,27.5-109.67-1.69-12.42-11.77-24.24-24.18-36.34-36.3a2.77,2.77,0,0,1,1.54-2.37c21.35-11.55,31.85-30.49,36.55-53.46.71-3.51,1.09-7.17,3-10.34,2.13,1.23,2.38,3.51,3,5.55,3.47,11.26,8.48,21.7,16.1,30.8,4.9,5.86,10.64,10.62,17.79,13.35,16.79,6.42,32.6,1.74,45-13.15,8-9.63,13.38-20.64,17-33.38a174.38,174.38,0,0,1-13.82,10.7C350.4,426.72,312.2,421,292.56,397.25A6.83,6.83,0,0,0,291,396c-5.14-5.63-10.06-11.49-15.47-16.84a45.72,45.72,0,0,1-11.27-19.1,10.59,10.59,0,0,0-2.32-4.2c-4.19-6.43-4.88-14-6.9-21.16-.9-3.18-1.79-4.89-5.5-4.68s-6.43-2.26-8.64-5.12c-.9-1.45-2.42-2.49-2.86-4.25A101,101,0,0,1,223.6,282c-1-6.45-1.92-13.11,1.2-19.4.62-4.52,4-4.17,6.64-3,7.5,3.34,14,7.75,15,17,.28,2.49-.35,6.37,2.22,7.11s4.66-2.59,6.7-4.47c16.36-15,26.67-33.82,34.42-54.27,2.42-6.38,3.29-6.76,8.58-2.26,23.87,20.28,51.73,32.33,81.75,40a14.44,14.44,0,0,1,5.12,1.88c2.32,3.63-1.07,3.41-2.8,3.84-8.55,2.13-15.66,6.38-21,13.5a38.41,38.41,0,0,0-4.57,8.3c-1.31,3.16-3.17,3.48-5.8,1.67-6-4.16-12.08-4.29-18.11-.05-3,2.08-4.58,1.33-5.95-2-4.95-12-14-19.11-26.73-21.6-19.46-3.81-39.12,10.93-40.93,30.7-1.95,21.31,13.22,39.31,34.48,39.4,18.44.07,34-12.93,35.78-33.43.26-3,.46-6,2.15-8.61a12.22,12.22,0,0,1,13.5-5.25c5,1.31,8.68,6.14,9,11.91.55,11.68,5.12,21.45,14.59,28.29,11.27,8.14,23.61,9.63,36.28,3.31,12.37-6.17,19-16.36,19.55-30.23.55-12.82-4.55-22.93-15-30.37-1.21-.86-2.55-1.62-3-3.23.26-1.3,1.29-1.64,2.37-1.93,6.17-.31,12.27.68,18.36,1.39,5.53.64,10.36.61,14.41-4.25a19.05,19.05,0,0,1,10.42-6.55c2.41-.54,5.06-1,5.71,2.6,3.84,6.71,2.21,13.92,1.43,20.85-1.54,13.72-7.88,25.9-13.48,38.27-1.42.53-2,1.81-2.68,3-2.53,3.58-5.91,5.94-10.34,5.91-3,0-4,1.37-4.63,3.95-2,7.86-3.5,15.86-7.31,23.14-3.53,5.62-5.35,12.15-9.23,17.59-4.58,6.41-10.61,11.46-16.09,17-2.22,2.24-3,4.31-2.14,7.52,2.62,9.4,4.27,19.11,8.23,28.1,6,13.69,16.08,23.83,28.56,31.74C431.68,460,433.45,460.36,434.09,462.15Z" transform="translate(-11.71 -10.5)"/><path class="cls-2" d="M385,265.18c-34-8.05-65.39-21.24-91.77-45.38C283.42,246,271,270.22,247.55,287.36c-1.82-3.64-1.94-7.21-2.27-10.54-.89-8.84-7.32-12.53-14-16-2.39-1.24-4.9-.94-6.46,1.78-1.4-1.39-.77-3.16-.77-4.75q-.06-33.23,0-66.45c.07-30.17,23.53-53.89,53.8-54a57.73,57.73,0,0,0,23.53-4.71c23.47-10.16,47.7-10.92,72.13-3.29a20,20,0,0,0,8.25,1c38.68-3.9,70,19.3,76.72,56.85a56.91,56.91,0,0,1,.72,9.94q.1,30.48,0,61c0,1.35.75,3.09-1.17,3.93-2.3-2.91-5-1.84-7.6-.63a30.08,30.08,0,0,0-9.91,8.12,6.4,6.4,0,0,1-6,2.46c-8.4-.77-16.8-1.41-25.2-2.11-1.91-1-3.67.78-5.55.3C397.57,268.17,390.59,269.25,385,265.18Z" transform="translate(-11.71 -10.5)"/><path class="cls-5" d="M421,357.15c-.72-4.27,2.41-7.51,3.09-11.44.62-3.57,1.95-7,2.77-10.54.86-3.7.64-7.62,6.84-6.36,3.87.78,6.66-3.11,9.38-5.77.93-.21,1.42,0,1.05,1.06C438.18,336.37,430.76,347.59,421,357.15Z" transform="translate(-11.71 -10.5)"/><path class="cls-5" d="M240.94,324c3.55,3,6.94,6.4,12.28,4.54,1.46-.51,1.63.52,1.89,1.5q3.4,12.9,6.83,25.8a2.32,2.32,0,0,1-2.15-.95c-7.89-9.07-15.05-18.62-20-29.67C239.4,324.13,240,323.88,240.94,324Z" transform="translate(-11.71 -10.5)"/><path class="cls-6" d="M240.94,324c-.38.4-.76.81-1.13,1.22-.42-1.6-3.16-2.3-1.77-4.59A8.1,8.1,0,0,1,240.94,324Z" transform="translate(-11.71 -10.5)"/><path class="cls-7" d="M444.11,324.1,443.06,323c.5-1.32,1.2-2.36,2.88-1.88Z" transform="translate(-11.71 -10.5)"/><path class="cls-8" d="M291,396c5.13,2,8.07,6.69,12.26,9.87,23.62,18,60.25,16.12,81.79-4.37a33,33,0,0,1,6.47-4.71c-5.48,20.05-13.54,38.41-33,48.9-14.14,7.6-27.72,5.13-40.19-4-14.35-10.55-21.37-25.85-26.25-42.37-.32-1.11-.68-2.21-1-3.31Z" transform="translate(-11.71 -10.5)"/><path class="cls-8" d="M385,265.18c6.31,1.48,12.86,1.79,19,3.87,1,.69,2.51.5,3,1.92,14,7.76,21.56,22,18.75,38.06-2.62,15-11.84,25-26.61,29.35-22,6.48-45.85-11.32-46.16-34.38-.1-7.39-4.33-12-11-12s-10.81,4.52-11,12.06a36.94,36.94,0,0,1-29.46,34.85c-20.24,3.89-38.1-8.11-43-28.88-4.27-18,7.88-37.45,26.63-42.56,17.67-4.83,37.1,5.3,43.41,22.63.27.74.6,1.47.91,2.23,11.57-6.77,13.26-6.91,25.11,0,5.25-13.93,14.62-23.06,29.77-25.36C385.71,266.78,385.25,266,385,265.18Z" transform="translate(-11.71 -10.5)"/><path class="cls-9" d="M357.45,333.51c2.12,7.05-6.32,14.47-14.07,14.55-10.68.11-17.12-5-17.15-14.82,3.6,6.81,9.14,9.72,15.89,9.66S354.29,340.15,357.45,333.51Z" transform="translate(-11.71 -10.5)"/><path class="cls-10" d="M407,271l-3-1.92c1.82-.13,3.62-.19,5.25.83C408.44,270.06,407.53,270.08,407,271Z" transform="translate(-11.71 -10.5)"/><path class="cls-4" d="M358,302.56c0-17.79,14.08-31.58,32.12-31.57a32,32,0,0,1,31.78,32.17c0,18.79-16.44,32.29-32.66,31.92C370.47,334.67,356.65,318.16,358,302.56Z" transform="translate(-11.71 -10.5)"/><path class="cls-4" d="M326,302.91c1.34,17.34-15,32.36-32.13,32.21-15.63-.14-31.68-13.59-31.76-32-.07-18.28,15.89-32.23,32.07-32.21C311.22,270.91,327.29,285.83,326,302.91Z" transform="translate(-11.71 -10.5)"/></svg>