<svg id="Calque_1" data-name="Calque 1" xmlns="http://www.w3.org/2000/svg" viewBox="0 0 700.18 708.14"><defs><style>.cls-1{fill:#d4d7d8;}.cls-2{fill:#4b555a;}.cls-3{fill:#656c70;}.cls-4{fill:#eeeeec;}.cls-5{fill:#4c565b;}.cls-6{fill:#656d71;}.cls-7{fill:#7a8084;}.cls-8{fill:#c8cdd3;}.cls-9{fill:#d5d8d8;}.cls-10{fill:#e0e1e2;}</style></defs><title>avatar_male_01</title><path class="cls-1" d="M103,705c-32.83,0-65.65,0-98.48.08-2.92,0-3.61-.51-3.61-3.56Q1.06,351.11.91.67c0-3.3,1-3.73,3.91-3.73Q351-3,697.17-3.06c2.94,0,3.92.42,3.92,3.73q-.15,350.43,0,700.85c0,3-.69,3.57-3.61,3.56C668.65,705,639.83,705,611,705c-3.48-3.88-2.71-8.71-2.91-13.3-1.34-30.79-4-61.41-11.77-91.37-2.08-8.06-4.73-15.94-8.92-23.23-2.53-4.39-3.21-9.44-4.39-14.27-3.71-15.28-10.07-29.17-20.33-41.26-13.66-16.09-31-25.69-51.33-30.73-22.75-5.64-46-9.55-68.13-17.48-25-12.94-37-34.6-41.85-61.35-1.09-6,.17-10.18,4.59-14.05,9-7.87,16.34-17,20.62-28.3a9.55,9.55,0,0,1,2.25-3.25c9.37-9.76,16.64-21,23-32.83a14.42,14.42,0,0,0,1.71-4.07c4.31-9.86,9.28-19.42,11.68-30.07a67.66,67.66,0,0,0,.8-27.58c-.09-23.48.3-47-.15-70.42-.47-24-21-49-45.47-56.57-9.76-3-19.65-3.23-29.65-2.66a22.82,22.82,0,0,1-8.36-.83,117.14,117.14,0,0,0-23.95-4.64,94.58,94.58,0,0,0-47.68,7.9,51.58,51.58,0,0,1-21.19,4.47c-13.69.06-26.25,3.84-36.83,13-11.16,9.71-17.32,22-17.65,36.66-.48,21.47-.15,43-.09,64.45,0,3.15-.63,6.29-.1,9.45-3.35,18.13,2,34.53,10.09,50.37,1,2.07,2.45,4,2.81,6.34.08,2.12,1.41,3.71,2.4,5.45,4.93,10.62,12.16,19.69,19.37,28.77a6.77,6.77,0,0,0,2.06,1.34c2.13,1.34,2.84,3.55,3.59,5.76a44.69,44.69,0,0,0,11.23,17.9c5.19,5.07,10.25,10.3,14.2,16.47a4,4,0,0,1,.1,1.5c-2.14,11.1-4.61,22.12-9.19,32.51-6.71,15.25-18.48,25.69-32.6,33.84-16.83,6.58-34.68,9.32-52.05,13.89-13.33,3.5-27.13,5.47-39.52,12.05-21.95,11.66-37.69,28.83-45.64,52.54-7.47,22.32-11.64,45.41-14.8,68.69-2.54,18.64-4.41,37.34-4.34,56.16,0,7.12-.17,14.3.89,21.41C103.9,700.16,104.46,702.66,103,705Z" transform="translate(-0.91 3.06)"/><path class="cls-2" d="M443.09,472.15c6.35.44,12,3.58,18.08,5,19.92,4.56,40.07,8.49,59.53,14.6,32.95,10.33,53.68,33.26,63,66.47,2.17,7.74,4.18,15.38,7.76,22.8,8,16.61,10.81,34.82,13.52,52.94,3.54,23.56,4.45,47.34,6,71.07H434c-1.45-1.48-1.5-3.29-1.14-5.14,1.09-5.58,1.09-11.27,1.87-16.87a5.7,5.7,0,0,0,.17-1c-.91-22.31-1-44.87-13.89-64.54-15.8-24.22-37.89-37.65-67.25-38.6-21.49-.7-40.46,5.53-56.59,19.72-17.77,15.63-27.31,35.37-28.23,59.11-.2,5.15-.36,10.19-1.68,15.3-2.07,8-.55,16.2.23,24.31.24,2.58,1.43,5.24-.49,7.7H103c-2.53-9.1-2.52-18.49-2.47-27.77.16-32.08,4.4-63.8,11-95.08,3.39-16,6.65-32.32,15.11-46.84C140.27,512,159.9,496.6,186.13,490c19-4.8,38.15-9.18,57.21-13.85,3.7-.9,7.31-2.22,10.92-3.46,1.55-.53,3-1.63,4.66-.51,2.91-.08,4.37,2.19,6.09,3.9,9.83,9.73,19.56,19.56,29.37,29.31,15.39,15.28,34.13,23.4,55.63,23.66,21.68.26,40.82-7.36,56.53-22.63,10.27-10,20.27-20.26,30.44-30.34C438.71,474.35,440.2,472.11,443.09,472.15Z" transform="translate(-0.91 3.06)"/><path class="cls-3" d="M267,705c-2-9.93-4.2-20.09-1.81-30,2.86-11.82,1.09-23.93,4.33-35.77,8.78-32.07,34.91-56.4,67.7-61.31,28.9-4.33,54.11,3.4,74.54,24.49,14.77,15.24,22.58,33.74,23.32,55.14.21,5.94,1.63,11.85,1.82,17.79.31,10-1.53,19.8-2.9,29.65Z" transform="translate(-0.91 3.06)"/><path class="cls-4" d="M443.09,472.15c-12.69,12.71-24.84,26-38.17,38-31.54,28.4-78.75,27.53-109.65-1.68-12.44-11.76-24.25-24.18-36.35-36.3.19-2,1.94-2.5,3.33-3.33,17.59-10.5,28.26-25.91,33-45.74,1.38-5.75,2.21-11.68,4.79-17.11,2.68,1.87,3.3,4.9,4.23,7.72A86.47,86.47,0,0,0,319,441.33c14.87,18.34,40.08,25.06,60.88,2.72,7.59-8.15,13.12-18.21,18.23-33.51-3.6,2.76-6.73,5.48-10,8-19.89,15-55.92,16.82-80.43-4.06-3-2.52-4.81-5.88-7.63-8.43-5-5.51-9.79-11.26-15.09-16.48a46.15,46.15,0,0,1-11.62-19.43,10.49,10.49,0,0,0-2.34-4.24c-4.69-6-5.25-13.5-7.24-20.44-.91-3.14-2-4.91-5.56-5-3.76-.09-6.42-2.36-8.31-5.54-.87-1.45-2.38-2.47-2.79-4.23A101.5,101.5,0,0,1,232.59,292c-1-6.46-1.83-13.1,1.2-19.4,1.21-3.71,3.17-4.94,6.93-3.33,7.62,3.25,13.88,7.89,15.19,17,.33,2.33-.36,5.86,2.19,6.61,2.36.7,4.13-2.3,5.93-4,15.31-14.05,25.44-31.48,33-50.61.55-1.4,1.06-2.81,1.65-4.18,2.22-5.2,4.07-5.83,8.55-2.15a186.67,186.67,0,0,0,26.58,18.57A221.7,221.7,0,0,0,387,271.68c2.56.68,5.27,1,7.42,2.77,1.49,1.81.78,3-1.08,3.89a29.12,29.12,0,0,1-4.26,1.41c-9.83,2.89-16.9,9-21.5,18.12-3.27,6.51-3.37,6.59-9.66,3.34a14,14,0,0,0-13.82,0c-6.16,3.22-6.22,3.15-9.22-3a34.61,34.61,0,0,0-33.13-20c-15.62,1.05-27.68,11-31.63,25-5.58,19.83,6.5,40,26.27,43.89,20.37,4,39.26-10,41.66-30.88.18-1.49.19-3,.43-4.48,1.16-7,6.34-11.57,13-11.36s11.77,5.13,12.2,12.19c.53,8.61,3.18,16.29,8.7,22.93a34.42,34.42,0,0,0,37.53,10.42c14.2-5.07,23.13-17.54,23.32-32.23.15-11.87-4.51-21.28-13.82-28.51-1.55-1.2-3.42-2.17-3.73-4.44a3,3,0,0,1,2.28-2.13c6.32-.81,12.54.47,18.74,1.18,5.42.63,10,.23,13.9-4.23a19,19,0,0,1,10-6.29c2.62-.59,5.79-1.5,6.45,2.82,3.87,6.7,2.18,13.92,1.43,20.85-1.51,13.73-7.91,25.89-13.48,38.28-1.41.54-2,1.83-2.63,3a11.53,11.53,0,0,1-9.57,6.25c-3.31.21-4.52,1.85-5.25,4.77-1.88,7.52-3.23,15.24-7.51,21.95-3.53,5.63-5.36,12.14-9.23,17.58-4.37,6.14-10.06,11-15.38,16.27-2.81,2.75-3.71,5.27-2.62,9.23,3.46,12.62,5.58,25.7,13.27,36.76a76.44,76.44,0,0,0,23.28,22.12C440.7,470,442.38,470.44,443.09,472.15Z" transform="translate(-0.91 3.06)"/><path class="cls-2" d="M394,275.18c-34-8.05-65.38-21.24-91.76-45.36-9.81,26.19-22.17,50.39-45.67,67.54-1.8-3.65-1.93-7.2-2.27-10.53-.91-8.81-7.29-12.55-14-16-2.39-1.23-4.91-.94-6.48,1.78-1.41-1.59-.75-3.51-.76-5.27q-.08-32.71,0-65.44c0-30.83,23.48-54.53,54.3-54.47a54.33,54.33,0,0,0,22.56-4.55c23.63-10.31,48-11.15,72.6-3.46a21.91,21.91,0,0,0,8.77.92c36.61-3.28,66.48,17.25,75.15,51.51a66.53,66.53,0,0,1,1.81,16.32q.06,29.72,0,59.44c0,1.5.86,3.41-1.18,4.43-2.31-2.88-5-1.84-7.6-.63-4,1.85-7.09,4.87-9.9,8.12a6.42,6.42,0,0,1-6,2.46c-8.39-.77-16.79-1.42-25.18-2.11-2-1-3.66.83-5.56.68-4.28-.5-8.43-1.77-12.73-2.16C397.52,278.17,395.9,276.41,394,275.18Z" transform="translate(-0.91 3.06)"/><path class="cls-5" d="M430,367.15c-.72-4.27,2.4-7.5,3.09-11.43.62-3.56,1.94-7,2.77-10.52.86-3.71.65-7.64,6.86-6.39,3.86.78,6.63-3.14,9.36-5.77.92-.21,1.43,0,1.05,1.07C447.19,346.37,439.75,357.58,430,367.15Z" transform="translate(-0.91 3.06)"/><path class="cls-5" d="M249.94,334c3.54,3,6.95,6.37,12.27,4.57,1.45-.48,1.64.52,1.9,1.51q3.4,12.88,6.83,25.77a2.39,2.39,0,0,1-2.15-1c-7.93-9-15-18.63-20-29.65C248.36,334.09,249,333.9,249.94,334Z" transform="translate(-0.91 3.06)"/><path class="cls-6" d="M249.94,334l-1.14,1.23c-.47-1.57-3.1-2.32-1.76-4.59A8.13,8.13,0,0,1,249.94,334Z" transform="translate(-0.91 3.06)"/><path class="cls-7" d="M453.11,334.11,452.06,333c.51-1.31,1.19-2.36,2.88-1.87Z" transform="translate(-0.91 3.06)"/><path class="cls-8" d="M300,406c4.94,1.69,7.61,6.26,11.55,9.24,24.74,18.68,60.17,17.12,82.69-3.93,1.8-1.68,3.84-3.11,6.66-5.37-3.58,15.48-9.86,28.35-19.79,39.39a46.47,46.47,0,0,1-18.85,12.72c-15.72,5.78-33.39-1.93-44-14.7-9.16-11-14.42-23.81-18.18-37.39Z" transform="translate(-0.91 3.06)"/><path class="cls-8" d="M394,275.18c6.32,1.44,12.86,1.79,19,3.87,1,.67,2.52.48,3,1.91,14.14,8,21.51,23.18,18.77,38.69s-14.92,27-31.26,29.45c-22.74,3.43-40.83-14.87-41.53-35-.26-7.47-4.35-12.09-11-12.11s-10.67,4.48-11.08,12.09c-1.08,20.44-15.87,35.11-36,35.57-18.27.43-34.56-11.74-36.81-32.42-2.23-20.44,11.36-37.25,30.39-40.41,17-2.83,34.87,8.06,39.87,22.93.58,1.73,1,3.25,3.26,1.48,7.65-5.94,15.09-4.79,22.56,1.36,3.19-6.63,6.28-12.89,11.95-17.58,5.06-4.19,10.76-6.49,17-8C393.23,276.79,394.73,277.15,394,275.18Z" transform="translate(-0.91 3.06)"/><path class="cls-9" d="M335.26,343.49c6.73,11.67,23.21,13.17,31.19.7.76,7.3-5.31,13.39-13.77,13.81C342.12,358.52,335.42,353.26,335.26,343.49Z" transform="translate(-0.91 3.06)"/><path class="cls-10" d="M416.06,281l-3-1.91a8.58,8.58,0,0,1,5.27.83Z" transform="translate(-0.91 3.06)"/><path class="cls-4" d="M367,313c0-18,13.88-32,31.8-32,17.44,0,32.19,14.62,32.22,32S416.14,345,398.78,345C380.83,345,367,331,367,313Z" transform="translate(-0.91 3.06)"/><path class="cls-4" d="M335.05,313.19c1.15,16.8-14.58,31.92-31.92,31.92-16,0-32.11-13.81-32-32.3.16-18.79,16.6-32.13,32.35-31.93C320.44,281.1,336.34,295.89,335.05,313.19Z" transform="translate(-0.91 3.06)"/></svg>