<svg id="Calque_1" data-name="Calque 1" xmlns="http://www.w3.org/2000/svg" viewBox="0 0 700.18 708.14"><defs><style>.cls-1{fill:#d4d7d8;}.cls-2{fill:#656d6f;}.cls-3{fill:#eeeeec;}.cls-4{fill:#4b555a;}.cls-5{fill:#c8cdd2;}.cls-6{fill:#c8cdd3;}.cls-7{fill:#d5d8d8;}.cls-8{fill:#5c6469;}</style></defs><title>avatar_female_01</title><path class="cls-1" d="M104,705c-33.16,0-66.32,0-99.48.08-2.92,0-3.61-.51-3.61-3.56Q1.06,351.11.91.67c0-3.31,1-3.73,3.91-3.73Q351-3,697.18-3.06c2.94,0,3.91.43,3.91,3.73q-.15,350.43,0,700.85c0,3.05-.7,3.57-3.61,3.56C665,705,632.49,705,600,705a6.24,6.24,0,0,1-1.86-4.5c-.52-13-1.34-25.9-2.08-38.85-1.93-33.58-4.57-67.08-11.28-100.1-3.09-15.24-11.64-27.95-21.37-39.63-13.88-16.67-31.79-26.95-53.15-31.44-9.43-2-18.83-4.24-28.17-6.69-2.73-.72-5.57-1.21-7.65-3.4-1.68-2.54-1.38-5.43-1.39-8.24q-.06-22,0-44c0-27.67-11.92-48.59-35.43-63-2-1.21-4.15-2.17-5.38-4.31a7.65,7.65,0,0,1-.15-5.37c1.86-6.91,3.48-13.87,5.22-20.8,1.42-5.65,3.2-6.1,8-2.6,9.55,7,13.5,6.85,20.07-2.92C475.5,314,481,297.26,480,278.81c-.33-6.39-3.39-7.83-8.9-4.58a48.34,48.34,0,0,0-5.57,4.2c-1.39,1.1-2.74,2.59-4.85,1.52-1.39-2.26-.36-4.53,0-6.78,7.24-43-.68-82.31-28.79-116.33-40.86-49.46-109.38-51.94-153-8.54-26,25.86-38.38,57.4-39,93.84-.18,10.17.09,20.3,2.06,30.33.41,2.09.95,4.28-.4,6.3-1.52,1.28-2.81.25-4.07-.48s-2.38-1.82-3.64-2.63c-2.47-1.58-4.78-4.24-8-2.9-3.59,1.48-3.51,5.3-3.4,8.25.67,18.73,5.74,36.12,17.25,51.17,4.52,5.9,9.24,6.1,15.7,1.71,8.56-5.84,8.56-5.83,10.85,4.28,1.55,6.82,3.54,13.53,5.4,20.26,4.26,15.45,11.75,28.94,24.24,39.32,4.67,3.88,6.2,8.33,4.78,14.5-4.28,18.59-9.91,36.29-25.08,49.37a115.77,115.77,0,0,1-16.72,11.73c-21.65,7.93-44.37,11.77-66.67,17.18-37.58,9.11-61.48,31.88-72.29,68.92-6.75,23.14-9.18,47-12,70.73a476.32,476.32,0,0,0-2.9,64.75C105,698.27,106.89,701.89,104,705Z" transform="translate(-0.91 3.06)"/><path class="cls-2" d="M104,705c-3.27-34.75.73-69.11,5.45-103.43,1.31-9.55,2.59-19.14,4.64-28.55,6.67-30.65,19.93-57,48.44-73.39,13.4-7.7,28.27-10.48,42.91-14.24C222.65,481,240.32,478.3,257,472a5.21,5.21,0,0,1,2,0c3.05.64,4,3.38,5.29,5.59,15.37,25.54,30.58,51.18,46.2,76.57a48.65,48.65,0,0,0,58.82,20c9.39-3.54,16.6-9.75,22.28-17.81,5.38-7.63,10-15.76,14.66-23.82.87-1.49,1.18-3.6,3.52-3.76,2.19,1,2.81,3.18,3.9,5,10.59,17.91,25.62,29.93,46.08,34.77,2.27.54,4.59.82,6.89,1.17,5.23.78,6.31-.13,6.35-5.31.09-8.83,0-17.66,0-26.49,0-16.82,0-33.65,0-50.47,0-2.6-.45-5.42,1.94-7.44,13.42,3.26,26.85,6.45,40.24,9.79,28,7,47.64,24,62.2,48.71,9.92,16.81,11.86,35.14,14.35,53.48,4.91,36.32,6.83,72.9,8.3,109.5,0,1.16,0,2.33-.07,3.49Z" transform="translate(-0.91 3.06)"/><path class="cls-3" d="M409.21,529c0,.66.17,1.46-.13,2-7,11.29-12.25,23.75-21.71,33.34C364.92,587.07,327,583.58,310,556.56,292.45,528.72,276,500.22,259,472c5.08-5,11.6-8.08,16.83-13.06,10.53-10,16.75-22.16,20.18-36a24.61,24.61,0,0,1,1.09-4.34c4.46-9.65,2.1-16.95-6.3-23.57-12.48-9.84-17.54-24.29-21.73-39-2.38-8.28-4.35-16.68-6.6-25.4-2.26,1.73-4.36,3.51-6.63,5.05-7.4,5-13.24,4-18.43-3.15A85.48,85.48,0,0,1,224,303.81c-2.3-8.8-4.42-17.65-3-26.9,1-6.55,4.8-8.58,10.52-5.07,3.37,2.07,6.37,4.75,9.54,7.15,1.89.45,2.62,2,3,3.58,3.45,13.18,9.2,25.4,15.52,37.38a11.21,11.21,0,0,1,.52,1.66c-.17-1.72-1.45-3.16-1.74-4.95-2.28-10.24-3.78-20.61-5.16-31-.76-5.79.58-7.36,6.25-7.61,4.49-.2,8.86-1.53,13.38-1.21a4.47,4.47,0,0,1,1.39.37c7.63,3.85,7.63,3.85,11.32-3.73a8.31,8.31,0,0,1,2.8-2.05c24.91-12,42.46-31.72,57.49-54.16.27-.41.52-.85.8-1.26,4.12-6.24,6.3-6.2,10.37.09,11.7,18,25.63,34.08,43.28,46.57a84.54,84.54,0,0,0,42.19,15.49c6.68.58,7.58,1.91,6.67,8.7-1.37,10.2-2.84,20.38-4.93,30.56,5.42-10,10.2-20.25,13.38-31.17.68-2.3,1-5,3.64-6.22,2.86-2.27,5-5.34,8.33-7.1,2.72-1.45,5.28-4.11,8.67-2.18s3.8,5.2,3.79,8.67c0,5.31.25,10.65-1,15.87-3.25,13.11-6.71,26.14-15.6,36.83-7.12,8.55-11.43,9-20.21,2.34-1.44-1.1-2.72-2.42-4.86-4.34-2.54,10.4-4.95,20.24-7.35,30.09-1.24,12.11-7.17,22-14.89,30.95-3.15,3.66-6.76,6.91-10.19,10.32a9.44,9.44,0,0,0-2.89,7.15c0,31.33-.13,62.66.13,94a63.18,63.18,0,0,0,3.39,19.12C409.28,524.09,410.43,526.45,409.21,529Z" transform="translate(-0.91 3.06)"/><path class="cls-4" d="M274,277.85a41.12,41.12,0,0,1-14.71,1.73c-4.28-.38-4.93,1.28-4.32,5,1.83,11.09,3.44,22.21,5.13,33.31.29,1.23,1.42,2.73-1,3.09-7.95-11.73-12.95-24.74-16.78-38.27-.35-1.25-.83-2.47-1.25-3.71-2.66-14.78-4.41-29.68-2.93-44.66,4.76-48.22,25.47-86.77,70.23-108.72C346.89,106.72,392.6,115,423.43,145c32.8,31.94,44.87,71.36,40.76,116.3-.58,6.27-1.95,12.47-2.95,18.7-4.06,15.13-9.61,29.6-19.23,43.74-.21-5.11,1.13-8.78,1.68-12.53s1.2-7.55,1.78-11.33q1.27-8.39,2.53-16.76c.3-2,.22-3.49-2.59-3.52-29-.36-50.38-15.77-69.29-35.76a183.5,183.5,0,0,1-21.68-28.59c-.77-1.23-1.36-2.65-3-3.52-7.68,12.4-16.08,24.17-26.19,34.58C313.92,258,301.44,268.1,286,273.94c-2.52-.6-3-2.9-3.88-4.8-2.86-6.53-5.54-13.14-8.23-19.74a36.05,36.05,0,0,0-2.06-4.52c-1.32-2.25-3.23-3.52-5.79-2.58-2.79,1-2.88,3.53-2.12,5.85,2,6.15,4.8,12,7.07,18C272.41,270,275.51,273.34,274,277.85Z" transform="translate(-0.91 3.06)"/><path class="cls-4" d="M409.21,529a64.32,64.32,0,0,1-5.85-27.07c-.1-31.62-.06-63.24-.15-94.86,0-2.48.46-4.47,2.39-6.19,12.12-10.8,21.92-23.15,26.07-39.25.14-.55.85-.94,1.3-1.41,14.14,7.36,25.83,17.3,33.41,31.61a70.92,70.92,0,0,1,8.49,33.41Q475,452.63,475,480c0,28.66-.1,57.31.12,86,0,4.88-1.4,6.54-6.21,6-15.52-1.59-29.32-7.09-40.94-17.6C420,547.24,413.11,539.21,409.21,529Z" transform="translate(-0.91 3.06)"/><path class="cls-5" d="M365,652a10.74,10.74,0,0,1-10.68,10.84,11,11,0,0,1-11.07-10.57,11.21,11.21,0,0,1,11.06-11.16A10.91,10.91,0,0,1,365,652Z" transform="translate(-0.91 3.06)"/><path class="cls-6" d="M354.08,622.78a11.26,11.26,0,0,1-10.81-10.92A11,11,0,0,1,354,601a10.79,10.79,0,0,1,10.95,11A11,11,0,0,1,354.08,622.78Z" transform="translate(-0.91 3.06)"/><path class="cls-6" d="M301.85,406.74c14.06,13.28,29.82,21.52,49.63,21.42s35.56-8.11,49.44-21.68a63.8,63.8,0,0,1-7.39,22.21c-4.36,8.25-9.47,16-17.15,21.72-20,14.87-41.46,12.34-57.34-7A79.61,79.61,0,0,1,301.85,406.74Z" transform="translate(-0.91 3.06)"/><path class="cls-6" d="M274,277.85q-5.71-13.85-11.4-27.7c-1.93-4.72-1-8.43,2.38-9.88,3.85-1.66,7.08.1,9.18,5.1,4,9.52,7.93,19.05,11.9,28.57.36,3.43-.36,6.51-3.91,7.74C278.38,283,275.71,281.18,274,277.85Z" transform="translate(-0.91 3.06)"/><path class="cls-7" d="M336.18,343.72c7.77,12.39,23.6,12.32,31.05.49a10.89,10.89,0,0,1-5.49,11.24,18.39,18.39,0,0,1-19.44,0C338.14,353.08,335.46,349.49,336.18,343.72Z" transform="translate(-0.91 3.06)"/><path class="cls-8" d="M259.06,321c1-.82.79-2,1-3.09a8.14,8.14,0,0,1,.83,5.75C259.49,323.18,259.55,321.89,259.06,321Z" transform="translate(-0.91 3.06)"/></svg>