<svg id="Calque_1" data-name="Calque 1" xmlns="http://www.w3.org/2000/svg" viewBox="0 0 660.53 661.58"><defs><style>.cls-1{fill:#d4d7d8;}.cls-2{fill:#646c6f;}.cls-3{fill:#eeeeec;}.cls-4{fill:#4b555a;}.cls-5{fill:#c8cdd2;}.cls-6{fill:#c8cdd3;}.cls-7{fill:#d5d8d8;}.cls-8{fill:#5c6469;}</style></defs><title>avatar_female</title><path class="cls-1" d="M101.22,567a273.93,273.93,0,0,1-30-35.63,324.22,324.22,0,0,1-45.82-90.71c-5.82-18.12-9.68-36.68-12.64-55.53C9.31,363,9.28,340.73,10.27,318.56a298.67,298.67,0,0,1,12.41-71.12A328.14,328.14,0,0,1,83.75,131.62a317.42,317.42,0,0,1,22.5-25.23,342.42,342.42,0,0,1,73.22-55.22,323.87,323.87,0,0,1,83.61-32.63,361.27,361.27,0,0,1,48.39-7.79,264.74,264.74,0,0,1,28.73-1.3c12.81.17,25.76.43,38.62,2.31,14.89,2.18,29.73,4.52,44.28,8.29A325.83,325.83,0,0,1,538.34,75.82a313,313,0,0,1,38.18,33.33,344.54,344.54,0,0,1,52.12,70,324.16,324.16,0,0,1,32.71,83.59,344.86,344.86,0,0,1,7.8,49.37c1.48,16.47,1.23,33,.59,49.35-.62,16-3.29,31.83-6.7,47.52a327.39,327.39,0,0,1-71.5,144.16c-4.11,4.75-8.58,9.14-12.67,13.88-2.74-.71-2.47-3.26-3-5.17-2.37-9.18-4.27-18.51-8.13-27.2-12.61-28.3-33.68-46.78-63.88-54.56-11.43-2.95-23-5.35-34.39-8.37-2.21-.59-4.64-.81-6.14-2.95-1-2.21-.75-4.56-.75-6.87,0-15.12.05-30.24,0-45.36-.14-27.76-12.34-48.68-36-63-1.82-1.11-3.95-1.83-5.14-3.8a7,7,0,0,1,0-4.89c2-7,3.64-14.19,5.35-21.31,1.27-5.29,2.47-5.6,6.59-2.45,10.31,7.89,15.28,7.3,22.21-3.69,9.14-14.51,14.27-30.36,14.05-47.7a17.15,17.15,0,0,0-.44-4.46c-1.19-4.16-3.63-5.32-7.53-3.46a32.43,32.43,0,0,0-7.31,5.18c-1.29,1.15-2.42,2.94-4.65,2-.59-6.38,1.64-12.42,2.24-18.68,2.37-24.66-.44-48.56-10.21-71.41-10.34-24.2-26.1-44-48.75-57.9a101,101,0,0,0-115.25,7c-28.41,22.44-43.85,52.16-48.47,87.7a150.09,150.09,0,0,0,1.16,46.24c.35,1.94,1.07,3.91,0,5.86-1.92,1.42-3-.34-4.29-1.21-1.91-1.32-3.66-2.88-5.64-4.11-5.11-3.14-8-1.78-9.29,4-1,4.36-.34,8.67.26,12.9,2,14.16,6.43,27.52,14.57,39.46,6.37,9.34,11.71,10.1,20.66,3.06.39-.31.75-.66,1.14-1,3.77-2.91,4.66-2.68,5.91,2.11,1.64,6.28,3.1,12.6,4.71,18.89,4.44,17.25,11.24,33.14,25.48,44.72,5.67,4.61,6.93,9.72,4.72,16.7-2.65,8.4-4.25,17.15-8,25.17-7,14.85-18.61,25.3-32.65,33.31-22.63,8.13-46.38,12-69.58,17.93-33.56,8.64-56.28,28.83-67.92,61.47-2.46,6.92-3.8,14.14-5.76,21.2C104.21,564.26,104.24,566.85,101.22,567Z" transform="translate(-9.71 -9.43)"/><path class="cls-2" d="M464,469c14.35,3.47,28.86,6.36,43,10.52,35.28,10.39,57.34,33.91,66.93,69.31,1.64,6,2.56,12.29,5,18.13.54,2.34-1,3.62-2.43,5.06A326.58,326.58,0,0,1,439.28,656a332.16,332.16,0,0,1-75.85,14.15c-53.33,3.88-104.51-4.86-153.64-25.46a318.86,318.86,0,0,1-76-45.36,380.38,380.38,0,0,1-30.94-28c-1.27-1.27-2.28-2.38-1.63-4.26,2.6-1.72,2.19-4.7,2.78-7.14,3.57-14.73,7.57-29.23,16.32-42,13.87-20.19,32.56-33.31,56.36-39.1,19-4.63,38-9.29,57.1-13.68C238.62,464,242.86,461,248,461c2.62,1,3.45,3.48,4.71,5.57,15.37,25.52,30.91,50.93,46.05,76.58,13.53,22.91,45.21,30.92,68.49,16.09,8.05-5.13,13.66-12.58,18.43-20.68,3.7-6.31,7.86-12.35,11-19,.41-.85.78-1.9,2.1-1.74,1.54.94,2,2.62,2.78,4,12.12,21.32,30,34.27,54.55,37.43,5.46.7,6.41-.18,6.42-5.85,0-25.61,0-51.22,0-76.84C462.61,474.08,462,471.29,464,469Z" transform="translate(-9.71 -9.43)"/><path class="cls-3" d="M398.21,518c0,.65.16,1.46-.14,2-7.06,11.43-12.42,24-22.06,33.7-22.28,22.37-60.25,18.67-77-8.09-17.48-27.88-34-56.34-51-84.55,3.94-4.35,9.5-6.46,13.9-10.26,13-11.24,19.56-25.77,24.27-42,3.16-10.84,2-18.48-7.24-25.69-12.07-9.44-16.62-23.7-20.81-37.77-2.5-8.38-4.34-17-6.56-25.78-2.37,1.83-4.59,3.74-7,5.36-7.1,4.79-13,3.81-18.06-3.15A85.94,85.94,0,0,1,213,293.08c-2.34-8.92-4.48-17.89-3.08-27.29.94-6.32,4.59-8.43,10.11-5.15,3.53,2.09,6.65,4.88,10,7.35,1.83.66,2.29,2.32,2.7,3.9a141.85,141.85,0,0,0,15.85,37.25,6.08,6.08,0,0,1,.64,2.54c.07-2.1-1-3.95-1.4-6-2-10.23-3.66-20.52-5.06-30.84-.88-6.43-.31-7,6.36-7.32,4.3-.22,8.49-1.39,12.81-1.35a3.77,3.77,0,0,1,1.39.4c7.56,4.48,8.33,4.22,11.37-3.84,5.64-3.84,12-6.36,17.65-10.28,17.63-12.31,31.22-28.33,43-46.06.27-.41.5-.86.77-1.28,3.87-6.11,5.46-6.06,9.33-.07C357.64,224,372.19,240.74,391,253.43a84.1,84.1,0,0,0,41,14.28c5.83.47,6.61,1.48,5.8,7.16-1.56,11-3.1,22-5.13,32.93a144.77,144.77,0,0,0,13.45-29.35c1-3.26,1.26-6.92,4.1-9.41,3.13-2.73,5.89-5.85,9.55-8,6.56-3.77,10.77-1.38,11.24,6.28.78,12.73-2.35,24.68-6.91,36.37-2.49,6.37-5.44,12.44-10,17.7-6.8,7.92-10.47,8.55-19,2.65-1.89-1.31-3.58-2.9-5.93-4.84l-7.29,30c-2.47,11.8-6.82,23.14-16,30.91-10.29,8.74-13.38,18.62-12.82,31.77,1,23.9.35,47.87.25,71.81-.05,10.06,1,19.89,4.29,29.44C398.25,514.71,398.85,516.31,398.21,518Z" transform="translate(-9.71 -9.43)"/><path class="cls-4" d="M450.24,269c-4,15.14-9.68,29.58-18.76,43.16-1.27-3.51.4-6.2.65-9s1-5.56,1.4-8.35c1.16-7.39,2.32-14.78,3.39-22.18.28-1.89.9-4-2.49-4-26-.21-46.17-13-64.08-30.39-10.21-9.91-18.72-21.17-26.37-33.12-1-1.49-2-3-3.22-4.88-8,12.89-16.39,24.67-26.51,35.08C302.92,247,290.45,257.11,275,262.94c-1.88-.57-2.25-2.32-2.9-3.8-3.17-7.13-6.07-14.37-9-21.59-.5-1.22-.95-2.48-1.56-3.65-1.51-2.87-3.81-4.39-6.94-3.08s-3.12,4.12-2.09,6.8c2.42,6.35,5,12.64,7.6,18.94,1.34,3.28,3.78,6.35,2.86,10.29a43.86,43.86,0,0,1-15.21,1.76c-3.81-.31-4.38,1.13-3.84,4.45,1.83,11.26,3.46,22.55,5.16,33.83.25,1.21,1.43,2.73-1,3.08-7.55-11.17-12.52-23.48-16.18-36.38-.54-1.89-1.23-3.73-1.86-5.6-2.68-14.77-4.38-29.69-2.92-44.66,4.69-47.82,25.09-86.28,69.35-108.26,43.28-21.5,94.56-9,125.63,29.09,29.59,36.25,37.54,77.65,28.48,122.92C450.43,267.73,450.35,268.39,450.24,269Z" transform="translate(-9.71 -9.43)"/><path class="cls-4" d="M398.21,518a64.22,64.22,0,0,1-5.87-27.07c-.11-31.63-.06-63.25-.15-94.88,0-2.49.48-4.46,2.41-6.18,12.12-10.79,21.92-23.15,26.08-39.26.14-.54.85-.94,1.29-1.4,14.31,7.44,26.08,17.53,33.65,32a70.69,70.69,0,0,1,8.26,33q.09,27.4.1,54.81c0,28.78-.11,57.57.13,86.35,0,4.81-1.54,6-5.95,5.65-14.82-1.27-28.14-6.43-39.42-16C410,537.64,402.35,529.07,398.21,518Z" transform="translate(-9.71 -9.43)"/><path class="cls-5" d="M354,641a10.8,10.8,0,0,1-10.74,10.82,11.11,11.11,0,0,1-11.07-10.65c-.16-5.86,5.26-11.27,11.14-11.13A11,11,0,0,1,354,641Z" transform="translate(-9.71 -9.43)"/><path class="cls-6" d="M354,600.84a11.1,11.1,0,0,1-11.21,11c-5.65-.21-10.64-5.52-10.58-11.24A11.13,11.13,0,0,1,343.31,590,10.77,10.77,0,0,1,354,600.84Z" transform="translate(-9.71 -9.43)"/><path class="cls-6" d="M290,394.34c14.71,14.38,30.46,22.92,50.45,22.83s35.78-8.26,49.67-21.89a79.16,79.16,0,0,1-14.71,33.82c-5.82,7.66-12.79,13.78-22,17.3-14.87,5.7-27.92,2-39.27-8C301.26,427.13,294.24,412.27,290,394.34Z" transform="translate(-9.71 -9.43)"/><path class="cls-6" d="M262.94,266.85c-3.84-9.33-7.72-18.65-11.52-28-1.85-4.54-.69-8.45,2.73-9.71,3.79-1.41,6.89.25,8.85,4.91,4.05,9.61,8,19.26,12,28.88.41,3.57-.43,6.69-4.13,7.85S264.62,270.13,262.94,266.85Z" transform="translate(-9.71 -9.43)"/><path class="cls-7" d="M356.94,331.47c-.53,10.84-7.16,16-17.69,15.53-8.59-.4-14.39-6.18-14-14.7,3.69,6.45,8.65,10,15.8,9.7C347.81,341.69,353.09,338.86,356.94,331.47Z" transform="translate(-9.71 -9.43)"/><path class="cls-8" d="M248.06,310c1.15-.76.78-2,1-3.08a8.09,8.09,0,0,1,.84,5.75C248.5,312.19,248.55,310.89,248.06,310Z" transform="translate(-9.71 -9.43)"/></svg>