<svg id="Calque_1" data-name="Calque 1" xmlns="http://www.w3.org/2000/svg" viewBox="0 0 700.24 708.2"><defs><style>.cls-1{fill:#d4d7d8;}.cls-2{fill:#4c565b;}.cls-3{fill:#9a9b9b;}.cls-4{fill:#f6f6f6;}.cls-5{fill:#485258;}.cls-6{fill:#e7e9e9;}.cls-7{fill:#e3e4e5;}.cls-8{fill:#b9bbbb;}</style></defs><title>avatar_company_00</title><path class="cls-1" d="M49,709c-14.66,0-29.33-.14-44,.1C1.6,709.16.9,708.46.9,705Q1.1,584.29,1,463.57q0-229-.12-457.9C.87,1.45,1.94.9,5.83.9Q351,1.07,696.17.9c3.89,0,5,.55,5,4.77q-.21,349.43,0,698.84c0,3.78-.88,4.65-4.61,4.59-14.5-.25-29-.1-43.49-.1-2-1.92-2-4.44-2-6.94a28.36,28.36,0,0,0-1-8.35c-1.71-5.9-5-8.54-11.16-8.66-7-.13-13.93,0-20.89,0a18.74,18.74,0,0,1-5.92-.55,4.72,4.72,0,0,1-2.5-1.15,4.89,4.89,0,0,1-.89-1.65c-1.1-3.08-.68-6.27-.68-9.41q0-185.62,0-371.25a26.54,26.54,0,0,1,0-4c1.25-8.4-2.83-13.1-10.07-16.81-17.93-9.18-35.74-18.58-53.6-27.86-1.77-1.48-3.17-3.51-5.72-3.87a67.68,67.68,0,0,1-11.71-6.14c-1.33-1.43-3.24-1.52-5-2.08-24.44-12.2-48.41-25.26-72.64-37.83-5.47-2.83-10.82-5.9-16.39-8.52-10-4.71-16.83-.43-16.84,10.58q0,142.67,0,285.33,0,90.45,0,180.9c0,3.94.59,8-1.77,11.66-6.83,2.18-13.81,1.09-20.72.71-2.54-.14-3.17-2.71-3.42-4.93a75.14,75.14,0,0,1-.16-8.49V140.18a79,79,0,0,0-.12-8,9.77,9.77,0,0,0-13.16-8.28c-40.46,14.92-81.15,29.18-121.71,43.82-45.1,16.28-90.29,32.33-135.43,48.48-10.58,3.78-12.47,6.24-12.47,17.49q0,218,0,436c0,15.94-1.18,13.72-13.58,13.8q-13,.09-26,0a20.22,20.22,0,0,0-7.84,1.23c-6,2.23-8.61,6.62-8.79,12.93C50.77,701.46,52.05,705.62,49,709Z" transform="translate(-0.88 -0.9)"/><path class="cls-2" d="M49,709c0-3.81.1-7.63,0-11.43-.21-6.89,2.7-11.77,9-14.58,1.22-.78,2.59-.46,3.9-.47,4.16,0,8.33.1,12.49,0,90.36-3,180.75-.87,271.12-1.66,22.44-.2,44.8,1.17,67.19,1.76,3,1.24,6.23.91,9.37.91q90.58,0,181.16,0c2.91,0,5.94,1.12,8.77-.5,9.62-.09,19.24-.42,28.84-.18,6.66.17,11.39,6.24,11.82,14.31.21,4,.23,7.95.34,11.92Z" transform="translate(-0.88 -0.9)"/><path class="cls-3" d="M413,683.17c-9.15-.12-18.3-.32-27.45-.32q-136.58,0-273.15,0c-18.14,0-36.28.1-54.42.15,1.52-1.48,3.46-1,5.23-1,12,0,24-.22,36,.07,4.61.12,5.9-1.27,5.89-5.89q-.23-90.5-.1-181V231.75c0-10.34,2.24-13.38,12-16.88q43.46-15.57,86.89-31.23,60.83-21.81,121.68-43.58c16.92-6,33.92-11.85,50.63-18.47,7-2.77,15.5,2.78,15.88,10.35.11,2.16,0,4.33,0,6.49V674.89c0,7.11,0,7.11,6.87,7.11l15,0c1.75-1.93,4.07-2,6.43-2q91.57-.06,183.15,0c2.38,0,4.68.16,6.4,2.12,0,.25.08.49.13.73-1.41,1.71-3.37,1.18-5.13,1.18q-93.57.06-187.14,0C416.2,684,414.5,684.19,413,683.17Z" transform="translate(-0.88 -0.9)"/><path class="cls-4" d="M610,682.06,414,682c0-3.31,0-6.62,0-9.93V204.76c0-13.37,8.47-18.71,20.32-12.56,22.13,11.49,44.14,23.21,66.23,34.78,7.78,4.08,15.64,8,23.46,12,1.13,1.08,2.72,1.24,4,2,3.33,2.63,7.38,3.92,11,6,1.51,1.25,3.48,1.73,5,3,18.88,9.77,37.72,19.63,56.67,29.25,6.61,3.35,9.56,7.81,9.55,15.69Q609.83,488.52,610,682.06Z" transform="translate(-0.88 -0.9)"/><path class="cls-5" d="M413,683.17l190.13-.12c2.32,0,4.64-.17,7-.26L612,683c-.75,2.85-3.12,2-5,2q-94.71.06-189.42,0C415.93,685,413.81,685.67,413,683.17Z" transform="translate(-0.88 -0.9)"/><path class="cls-6" d="M544,250c-2-.41-3.89-1.07-5-3C541,247.38,542.92,248,544,250Z" transform="translate(-0.88 -0.9)"/><path class="cls-7" d="M528,241c-1.68,0-3.17-.34-4-2A5.52,5.52,0,0,1,528,241Z" transform="translate(-0.88 -0.9)"/><path class="cls-1" d="M302.36,256.85c-5.2-.24-11.52.46-17.81-.71-9.1-1.69-14.56-8-14.67-17.3,0-2.83.23-5.69-.06-8.49-1.22-11.9,5.25-20.27,17.92-20.91,11.76-.59,23.61-1.31,35.34.54A17.86,17.86,0,0,1,338,227.4c.06,2.5-.18,5,.05,7.49,1.11,12-5.67,21.63-21.1,21.94C312.46,256.92,308,256.85,302.36,256.85Z" transform="translate(-0.88 -0.9)"/><path class="cls-1" d="M195.82,278.94c5.49,0,11-.08,16.48,0A17.85,17.85,0,0,1,230,296.8c.07,3.5.06,7,0,10.49-.16,11-7.6,18.58-18.53,18.71q-16,.21-32,0a17.49,17.49,0,0,1-17.65-17.77c0-4-.05-8,0-12,.14-9.88,7-16.94,17-17.25C184.49,278.8,190.16,279,195.82,278.94Z" transform="translate(-0.88 -0.9)"/><path class="cls-1" d="M303.65,278.94c5.49,0,11-.12,16.47,0,10.13.28,17.51,7.63,17.86,17.72.14,3.83.13,7.66,0,11.49-.33,10-7.79,17.6-17.9,17.8q-16.47.3-32.95,0a17.47,17.47,0,0,1-17.26-17.61q-.08-6,0-12c.15-10.17,7-17.16,17.29-17.41C292.66,278.83,298.15,278.94,303.65,278.94Z" transform="translate(-0.88 -0.9)"/><path class="cls-1" d="M304,350c5.32,0,10.64-.07,16,0,10.08.16,17.77,7.51,18,17.59.1,5.44.91,11-.77,16.36-2.45,7.87-8.26,12.74-16.45,12.95-11.14.27-22.3.34-33.43,0-11-.33-17.32-7.3-17.41-18.28,0-3.83,0-7.66,0-11.48a17.1,17.1,0,0,1,16.64-17.1c5.81-.21,11.64,0,17.47,0Z" transform="translate(-0.88 -0.9)"/><path class="cls-1" d="M195.29,468c-5.33,0-10.65.07-16,0-10.24-.17-17.34-7.41-17.45-17.73,0-3.66,0-7.32,0-11,.08-10.47,6.69-17.81,17.14-18.17,11-.38,22-.37,32.94,0s18,7.93,18.06,19.13c0,3.32.05,6.65,0,10A17.78,17.78,0,0,1,212.26,468C206.61,468.12,201,468,195.29,468Z" transform="translate(-0.88 -0.9)"/><path class="cls-1" d="M303.45,468c-5.15,0-10.31.06-15.47,0-11.18-.13-18-6.94-18.11-18,0-3.5,0-7,0-10.49.08-10.81,6.7-18.08,17.42-18.39s21.64-.32,32.45,0c11.1.32,18.14,7.87,18.27,18.94,0,3.33.08,6.66,0,10-.3,10.4-7.74,17.83-18.07,18C314.44,468.11,309,468,303.45,468Z" transform="translate(-0.88 -0.9)"/><path class="cls-1" d="M195.11,541c-5.16,0-10.32.06-15.48,0-8.64-.12-18.74-7.62-17.82-18.24.33-3.8,0-7.65.07-11.48.11-9.74,6.55-16.9,16.31-17.2,11.81-.37,23.63-.26,35.44,0A16.47,16.47,0,0,1,229,506.19a42.35,42.35,0,0,1-.22,22.64c-2.22,7.29-9.06,11.85-17.22,12.09C206.1,541.07,200.6,541,195.11,541Z" transform="translate(-0.88 -0.9)"/><path class="cls-1" d="M196,563c5.65,0,11.31-.1,17,0a17.61,17.61,0,0,1,17,16.83c.13,3.32.05,6.65,0,10-.05,12.46-6.75,19.7-19.2,20.08-10.14.31-20.3.19-30.45,0-10.85-.17-19.64-8.45-18.57-19,.4-3.95,0-8,.11-12A16.47,16.47,0,0,1,177.51,563c6.14-.25,12.31,0,18.47,0Z" transform="translate(-0.88 -0.9)"/><path class="cls-1" d="M196.5,350c5.16,0,10.32-.06,15.47,0a17.82,17.82,0,0,1,18,17.58c.14,3.82.12,7.65,0,11.47-.28,9.91-7.38,17.54-17.26,17.84q-16.69.51-33.43,0c-10.73-.31-17.37-7.58-17.44-18.32,0-3.49,0-7,0-10.48.09-10.9,7.15-18,18.17-18.12C185.53,349.94,191,350,196.5,350Z" transform="translate(-0.88 -0.9)"/><path class="cls-1" d="M303.09,541c-5,0-10-.08-15,0-8.18.15-19.25-7-18.3-18.27.32-3.8,0-7.65.06-11.47.12-9.79,6.51-16.92,16.28-17.22,11.8-.37,23.63-.32,35.43,0,8.88.24,15.87,7.78,16.37,17,.2,3.65.09,7.32.05,11-.14,10.78-7.67,18.56-18.45,18.91C314.08,541.09,308.58,541,303.09,541Z" transform="translate(-0.88 -0.9)"/><path class="cls-1" d="M285,563c11.65,0,23.31-.12,35,0,9.07,0,16,5.58,17.59,14.46a50,50,0,0,1,0,17.88c-1.65,9-8.75,14.34-18.87,14.58s-20.31.19-30.46,0c-10.42-.18-19.55-8-18.43-19.12a78,78,0,0,0,0-10.48c-.25-7.1,3-12,9.11-15.34C280.61,563.16,283.08,564,285,563Z" transform="translate(-0.88 -0.9)"/><path class="cls-8" d="M285,563c-1.79,1.32-4,1.4-6,1.94C280.4,562.52,282.78,563,285,563Z" transform="translate(-0.88 -0.9)"/><path class="cls-1" d="M510,350h14.47c10.76,0,17.68,5.2,19.06,15.66,1,7.29,2,15-1.93,21.95-3.59,6.27-9.18,9.38-16.43,9.4-10.15,0-20.29,0-30.43,0-10.51,0-17.59-5.41-19.26-15.74-1-6.31-1.3-12.88,1-19.21A17.58,17.58,0,0,1,493,350C498.68,349.93,504.33,350,510,350Z" transform="translate(-0.88 -0.9)"/><path class="cls-1" d="M509.42,326H494.93c-9.91,0-17.06-5.11-19.19-14.8-1.61-7.32-1.7-14.93,1.41-22.07,2.89-6.63,8.42-9.89,15.4-10.07,11.32-.3,22.65-.23,34,0,8.56.15,14.75,5.39,16.63,13.85a44,44,0,0,1,0,19.28A17.08,17.08,0,0,1,526.41,326C520.75,326.13,515.08,326,509.42,326Z" transform="translate(-0.88 -0.9)"/><path class="cls-1" d="M509.74,468c-5.16,0-10.33,0-15.49,0-10.71,0-17.68-5.81-19-16.52a42.73,42.73,0,0,1,.58-15.88c2.25-8.7,9-14.42,17.9-14.56,10.49-.17,21-.19,31.48,0,11.08.2,18.37,7.55,18.74,18.56.11,3.5.09,7,0,10.5-.28,10.32-7.92,17.81-18.23,17.89C520.4,468.05,515.07,468,509.74,468Z" transform="translate(-0.88 -0.9)"/><path class="cls-1" d="M509.45,541c-5,0-10,.06-15,0a19.26,19.26,0,0,1-19.39-19.31c0-4.63-.5-9.27.73-13.9,2.25-8.38,8.13-13.59,16.71-13.74q17.49-.3,35,0c8,.14,15,6.57,16.19,15.08a51.4,51.4,0,0,1-.11,16.42c-1.73,9.5-8.82,15.25-18.63,15.44C519.78,541.06,514.62,541,509.45,541Z" transform="translate(-0.88 -0.9)"/><path class="cls-1" d="M509.58,563c5.33,0,10.66,0,16,0,9.24.06,16.18,5.11,17.82,14.24,1.39,7.67,1.59,15.64-1.66,23.06a15.56,15.56,0,0,1-13.88,9.31,293.17,293.17,0,0,1-35.94,0c-11.65-.83-16.15-9.82-16.82-18.48a84,84,0,0,1,0-11,17.83,17.83,0,0,1,18-17.1C498.58,562.94,504.08,563,509.58,563Z" transform="translate(-0.88 -0.9)"/></svg>